<svg width="212" height="212" fill="none" xmlns="http://www.w3.org/2000/svg">
    <path d="M106 91v30M121 107H91" stroke="#91A7B7" stroke-width="2" />
    <path stroke="#91A7B7" stroke-width="4" d="M212 107h-30" />
    <path stroke="#91A7B7" stroke-width="2" d="M197.799 53l-25.981 15M158.982 14.317l-15 25.981" />
    <path stroke="#91A7B7" d="M133.046 3.452l-7.765 28.977M78.271 3.546l7.764 28.978M30.973 31.576L52.186 52.79" />
    <path stroke="#91A7B7" stroke-width="4" d="M106 0v30" />
    <path stroke="#91A7B7" stroke-width="2" d="M53 14.201l15 25.981" />
    <path stroke="#91A7B7" d="M30.775 31.253l21.213 21.213M3.602 78.758l28.978 7.765M3.914 134.046l28.978-7.764" />
    <path stroke="#91A7B7" stroke-width="2" d="M14.183 53.116l25.981 15" />
    <path stroke="#91A7B7" d="M3.576 79.017l28.978 7.765M3.93 133.723l28.978-7.765M31.68 181.483l21.213-21.213" />
    <path stroke="#91A7B7" stroke-width="4" d="M30 107H0" />
    <path stroke="#91A7B7" stroke-width="2" d="M40.182 144l-25.981 15M67.982 171.934l-15 25.98" />
    <path stroke="#91A7B7" d="M85.941 179.25l-7.765 28.978M125.376 179.345l7.765 28.978M159.666 160.27l21.214 21.213" />
    <path stroke="#91A7B7" stroke-width="4" d="M106 182v30" />
    <path stroke="#91A7B7" stroke-width="2" d="M144 171.818l15 25.981M171.8 144.116l25.98 15" />
    <path stroke="#91A7B7" d="M179.375 126.122l28.978 7.765M179.729 86.618l28.977-7.765M160.373 52.79l21.214-21.214" />
</svg>