<svg width="40" height="40" fill="none" xmlns="http://www.w3.org/2000/svg">
    <path
        d="M19 34a1 1 0 110 2 1 1 0 010-2zm6 0a1 1 0 110 2 1 1 0 010-2zm-9-2a1 1 0 110 2 1 1 0 010-2zm6 0a1 1 0 110 2 1 1 0 010-2zm6 0a1 1 0 110 2 1 1 0 010-2zm-6-20c4.93 0 7.726 3.148 8.132 6.948h.124c3.172 0 5.744 2.474 5.744 5.526C36 27.526 33.428 30 30.256 30H13.744C10.572 30 8 27.526 8 24.474c0-2.94 2.384-5.342 5.394-5.516l.474-.01C14.278 15.122 17.07 12 22 12zM11.686 4a8.472 8.472 0 013.79 1.13 8.476 8.476 0 013.958 5.146c-3.448.76-5.926 3.08-6.938 6.282l-.128.442-.092.374-.33.06a7.508 7.508 0 00-4.4 2.724 8.476 8.476 0 01-3.324-2.836 1.258 1.258 0 01.612-1.896c2.752-.984 4.234-2.092 5.08-3.712.926-1.766 1.098-3.64.484-6.16a1.255 1.255 0 011.288-1.552V4z"
        fill="url(#prefix__paint0_linear)" />
    <defs>
        <linearGradient id="prefix__paint0_linear" x1="9.465" y1="9.785" x2="27.945" y2="27.107"
            gradientUnits="userSpaceOnUse">
            <stop offset=".102" stop-color="#28C2D1" />
            <stop offset=".925" stop-color="#4931DE" />
        </linearGradient>
    </defs>
</svg>