<svg width="40" height="40" fill="none" xmlns="http://www.w3.org/2000/svg">
    <path d="M19 7V5a1 1 0 112 0v2a1 1 0 01-2 0z" fill="url(#prefix__paint0_linear)" />
    <path d="M14 16a6 6 0 1112 0 6 6 0 01-12 0z" fill="url(#prefix__paint1_linear)" />
    <path d="M19 25v2a1 1 0 102 0v-2a1 1 0 00-2 0z" fill="url(#prefix__paint2_linear)" />
    <path d="M9 16a1 1 0 000 2h2a1 1 0 000-2H9z" fill="url(#prefix__paint3_linear)" />
    <path d="M31 18h-2a1 1 0 010-2h2a1 1 0 010 2z" fill="url(#prefix__paint4_linear)" />
    <path d="M12.292 11.708a1.001 1.001 0 101.416-1.416l-2-2a1.001 1.001 0 10-1.416 1.416l2 2z"
        fill="url(#prefix__paint5_linear)" />
    <path d="M13.708 22.292a1 1 0 00-1.416 0l-2 2a1.001 1.001 0 101.416 1.416l2-2a1 1 0 000-1.414v-.002z"
        fill="url(#prefix__paint6_linear)" />
    <path d="M27.708 11.708a1 1 0 11-1.416-1.416l2-2a1.001 1.001 0 011.416 1.416l-2 2z"
        fill="url(#prefix__paint7_linear)" />
    <path d="M26.292 22.292a1 1 0 011.416 0l2 2a1.001 1.001 0 11-1.416 1.416l-2-2a1 1 0 010-1.414v-.002z"
        fill="url(#prefix__paint8_linear)" />
    <path
        d="M12.268 32.914c2.53-.623 5.127-.93 7.732-.914 3.338 0 6.09.458 8.26 1.054 2.08.57 3.63 1.268 4.648 1.816.483.259.95.546 1.4.86l.06.044.008.008a1 1 0 001.248-1.564l-.004-.004-.01-.006-.026-.02-.094-.07c-.524-.37-1.07-.707-1.636-1.01a24.345 24.345 0 00-5.064-1.984C26.454 30.484 23.522 30 20 30c-3.242 0-5.984.41-8.222.976A24.912 24.912 0 006.29 33.03c-.482.252-.95.527-1.404.826a9.636 9.636 0 00-.466.328l-.03.024-.008.006-.004.004h-.002a1 1 0 001.248 1.564l.012-.01.064-.048c.487-.34.995-.648 1.52-.924a22.896 22.896 0 015.048-1.886z"
        fill="url(#prefix__paint9_linear)" />
    <defs>
        <linearGradient id="prefix__paint0_linear" x1="19.341" y1="4.723" x2="21.12" y2="5.557"
            gradientUnits="userSpaceOnUse">
            <stop offset=".102" stop-color="#28C2D1" />
            <stop offset=".925" stop-color="#4931DE" />
        </linearGradient>
        <linearGradient id="prefix__paint1_linear" x1="16.049" y1="12.169" x2="22.979" y2="18.666"
            gradientUnits="userSpaceOnUse">
            <stop offset=".102" stop-color="#28C2D1" />
            <stop offset=".925" stop-color="#4931DE" />
        </linearGradient>
        <linearGradient id="prefix__paint2_linear" x1="19.341" y1="24.723" x2="21.12" y2="25.557"
            gradientUnits="userSpaceOnUse">
            <stop offset=".102" stop-color="#28C2D1" />
            <stop offset=".925" stop-color="#4931DE" />
        </linearGradient>
        <linearGradient id="prefix__paint3_linear" x1="8.683" y1="16.362" x2="9.644" y2="18.164"
            gradientUnits="userSpaceOnUse">
            <stop offset=".102" stop-color="#28C2D1" />
            <stop offset=".925" stop-color="#4931DE" />
        </linearGradient>
        <linearGradient id="prefix__paint4_linear" x1="28.683" y1="16.362" x2="29.644" y2="18.164"
            gradientUnits="userSpaceOnUse">
            <stop offset=".102" stop-color="#28C2D1" />
            <stop offset=".925" stop-color="#4931DE" />
        </linearGradient>
        <linearGradient id="prefix__paint5_linear" x1="10.682" y1="8.722" x2="12.993" y2="10.889"
            gradientUnits="userSpaceOnUse">
            <stop offset=".102" stop-color="#28C2D1" />
            <stop offset=".925" stop-color="#4931DE" />
        </linearGradient>
        <linearGradient id="prefix__paint6_linear" x1="10.682" y1="22.722" x2="12.994" y2="24.888"
            gradientUnits="userSpaceOnUse">
            <stop offset=".102" stop-color="#28C2D1" />
            <stop offset=".925" stop-color="#4931DE" />
        </linearGradient>
        <linearGradient id="prefix__paint7_linear" x1="26.682" y1="8.722" x2="28.994" y2="10.889"
            gradientUnits="userSpaceOnUse">
            <stop offset=".102" stop-color="#28C2D1" />
            <stop offset=".925" stop-color="#4931DE" />
        </linearGradient>
        <linearGradient id="prefix__paint8_linear" x1="26.683" y1="22.722" x2="28.994" y2="24.888"
            gradientUnits="userSpaceOnUse">
            <stop offset=".102" stop-color="#28C2D1" />
            <stop offset=".925" stop-color="#4931DE" />
        </linearGradient>
        <linearGradient id="prefix__paint9_linear" x1="9.464" y1="31.085" x2="10.8" y2="37.762"
            gradientUnits="userSpaceOnUse">
            <stop offset=".102" stop-color="#28C2D1" />
            <stop offset=".925" stop-color="#4931DE" />
        </linearGradient>
    </defs>
</svg>