<svg width="40" height="40" fill="none" xmlns="http://www.w3.org/2000/svg">
    <path
        d="M22 14c4.93 0 7.726 3.148 8.132 6.948h.124c3.172 0 5.744 2.474 5.744 5.526C36 29.526 33.428 32 30.256 32H13.744C10.572 32 8 29.526 8 26.474c0-3.052 2.572-5.526 5.744-5.526h.124C14.278 17.122 17.07 14 22 14zm-5.216-6a7.542 7.542 0 016.706 4.09c-.494-.06-.992-.09-1.49-.09-4.78 0-8.264 2.614-9.508 6.572l-.124.428-.092.374-.33.06a7.468 7.468 0 00-5.432 4.516 5.244 5.244 0 012.4-9.712l.444-.01A7.54 7.54 0 0116.784 8z"
        fill="url(#prefix__paint0_linear)" />
    <defs>
        <linearGradient id="prefix__paint0_linear" x1="9.463" y1="12.339" x2="23.013" y2="29.276"
            gradientUnits="userSpaceOnUse">
            <stop offset=".102" stop-color="#28C2D1" />
            <stop offset=".925" stop-color="#4931DE" />
        </linearGradient>
    </defs>
</svg>