<svg width="40" height="40" fill="none" xmlns="http://www.w3.org/2000/svg">
    <path
        d="M19.688 6c4.853 0 7.605 3.148 8.004 6.948h.122c3.123 0 5.655 2.474 5.655 5.526 0 3.052-2.532 5.526-5.655 5.526l-1.384-.002V24h-.059l-1.884 3.482a.987.987 0 01-.588.466.97.97 0 01-.74-.087.997.997 0 01-.469-.59 1.015 1.015 0 01.073-.753l1.364-2.52h-3.58V24h-.08l-1.886 3.482a.987.987 0 01-.588.466.97.97 0 01-.74-.087.998.998 0 01-.469-.59 1.014 1.014 0 01.072-.753L18.221 24H14.56l-1.886 3.482a.987.987 0 01-.588.466.97.97 0 01-.74-.087.997.997 0 01-.47-.59 1.015 1.015 0 01.073-.753L12.315 24h-.755c-3.122 0-5.654-2.474-5.654-5.526 0-2.94 2.347-5.342 5.31-5.516l.467-.01C12.086 9.122 14.835 6 19.688 6z"
        fill="url(#prefix__paint0_linear)" />
    <path
        d="M15.254 28.632c.227.132.392.35.461.605.069.256.035.529-.095.76l-1.968 3.5a.986.986 0 01-.596.45.97.97 0 01-.736-.1.997.997 0 01-.458-.593c-.07-.251-.042-.52.08-.75l1.97-3.5a.987.987 0 01.595-.468.97.97 0 01.747.096z"
        fill="url(#prefix__paint1_linear)" />
    <path
        d="M21.526 29.996c.122-.23.151-.499.08-.75a.997.997 0 00-.457-.594.97.97 0 00-.736-.1.986.986 0 00-.596.452l-1.968 3.5c-.123.23-.151.499-.081.75.07.251.235.464.458.594.223.13.488.165.736.1a.986.986 0 00.596-.452l1.968-3.5z"
        fill="url(#prefix__paint2_linear)" />
    <defs>
        <linearGradient id="prefix__paint0_linear" x1="10.613" y1="9.975" x2="23.171" y2="24.734"
            gradientUnits="userSpaceOnUse">
            <stop offset=".102" stop-color="#28C2D1" />
            <stop offset=".925" stop-color="#4931DE" />
        </linearGradient>
        <linearGradient id="prefix__paint1_linear" x1="12.495" y1="29.491" x2="15.43" y2="31.462"
            gradientUnits="userSpaceOnUse">
            <stop offset=".102" stop-color="#28C2D1" />
            <stop offset=".925" stop-color="#4931DE" />
        </linearGradient>
        <linearGradient id="prefix__paint2_linear" x1="18.399" y1="29.507" x2="21.324" y2="31.474"
            gradientUnits="userSpaceOnUse">
            <stop offset=".102" stop-color="#28C2D1" />
            <stop offset=".925" stop-color="#4931DE" />
        </linearGradient>
    </defs>
</svg>