<svg width="40" height="40" fill="none" xmlns="http://www.w3.org/2000/svg">
    <path
        d="M11.15 22a9.098 9.098 0 01.015-3.979 9.02 9.02 0 011.71-3.58 8.848 8.848 0 013.066-2.476 8.711 8.711 0 017.64 0 8.848 8.848 0 013.067 2.476 9.02 9.02 0 011.71 3.58A9.098 9.098 0 0128.373 22h6.088c.262 0 .512.105.697.293a1.008 1.008 0 010 1.414.977.977 0 01-.697.293H4.924a.977.977 0 01-.696-.293 1.008 1.008 0 010-1.414.977.977 0 01.696-.293h6.227z"
        fill="url(#prefix__paint0_linear)" />
    <path d="M19.958 36a.996.996 0 01-.433 0h.433z" fill="url(#prefix__paint1_linear)" />
    <path
        d="M9.996 8.764l-.136-.116a.973.973 0 00-1.318.18 1.01 1.01 0 00.062 1.35l1.69 1.716.137.116a.973.973 0 001.318-.18 1.01 1.01 0 00-.062-1.35L9.996 8.764z"
        fill="url(#prefix__paint2_linear)" />
    <path
        d="M30.994 10.04a1.012 1.012 0 00-.178-1.338.975.975 0 00-1.329.062l-1.691 1.716-.114.14a1.012 1.012 0 00.183 1.333.975.975 0 001.323-.059l1.692-1.716.114-.14v.002z"
        fill="url(#prefix__paint3_linear)" />
    <path
        d="M20.716 4.87a1.002 1.002 0 00-.372-.618.974.974 0 00-1.324.122 1.01 1.01 0 00-.257.676v2.426l.016.18c.044.246.176.466.372.618a.974.974 0 001.324-.122 1.01 1.01 0 00.257-.676V5.048l-.016-.18v.002z"
        fill="url(#prefix__paint4_linear)" />
    <path
        d="M16.738 32a.977.977 0 00-.696.293 1.008 1.008 0 000 1.414.977.977 0 00.696.293h5.908a.977.977 0 00.696-.293 1.008 1.008 0 000-1.414.977.977 0 00-.696-.293h-5.908z"
        fill="url(#prefix__paint5_linear)" />
    <path
        d="M9.846 28c0-.265.104-.52.289-.707A.977.977 0 0110.83 27h17.723c.261 0 .512.105.696.293a1.008 1.008 0 010 1.414.977.977 0 01-.696.293H10.83a.977.977 0 01-.696-.293A1.008 1.008 0 019.846 28z"
        fill="url(#prefix__paint6_linear)" />
    <defs>
        <linearGradient id="prefix__paint0_linear" x1="9.319" y1="13.418" x2="14.808" y2="25.968"
            gradientUnits="userSpaceOnUse">
            <stop offset=".102" stop-color="#28C2D1" />
            <stop offset=".925" stop-color="#4931DE" />
        </linearGradient>
        <linearGradient id="prefix__paint1_linear" x1="19.599" y1="36.004" x2="19.601" y2="36.032"
            gradientUnits="userSpaceOnUse">
            <stop offset=".102" stop-color="#28C2D1" />
            <stop offset=".925" stop-color="#4931DE" />
        </linearGradient>
        <linearGradient id="prefix__paint2_linear" x1="8.939" y1="9.142" x2="11.085" y2="11.123"
            gradientUnits="userSpaceOnUse">
            <stop offset=".102" stop-color="#28C2D1" />
            <stop offset=".925" stop-color="#4931DE" />
        </linearGradient>
        <linearGradient id="prefix__paint3_linear" x1="28.135" y1="9.141" x2="30.278" y2="11.12"
            gradientUnits="userSpaceOnUse">
            <stop offset=".102" stop-color="#28C2D1" />
            <stop offset=".925" stop-color="#4931DE" />
        </linearGradient>
        <linearGradient id="prefix__paint4_linear" x1="19.099" y1="4.849" x2="20.92" y2="5.608"
            gradientUnits="userSpaceOnUse">
            <stop offset=".102" stop-color="#28C2D1" />
            <stop offset=".925" stop-color="#4931DE" />
        </linearGradient>
        <linearGradient id="prefix__paint5_linear" x1="17.099" y1="32.362" x2="17.683" y2="34.518"
            gradientUnits="userSpaceOnUse">
            <stop offset=".102" stop-color="#28C2D1" />
            <stop offset=".925" stop-color="#4931DE" />
        </linearGradient>
        <linearGradient id="prefix__paint6_linear" x1="13.209" y1="27.362" x2="13.457" y2="29.649"
            gradientUnits="userSpaceOnUse">
            <stop offset=".102" stop-color="#28C2D1" />
            <stop offset=".925" stop-color="#4931DE" />
        </linearGradient>
    </defs>
</svg>