<svg width="41" height="40" fill="none" xmlns="http://www.w3.org/2000/svg">
    <path
        d="M20.313 4c.368 0 .724.132 1.002.37.277.239.457.569.507.928l.014.204v4.744l3.06-2.646a1.54 1.54 0 012.114.165 1.486 1.486 0 01-.104 2.087l-5.07 4.388v4.26h4.329l4.458-4.992a1.543 1.543 0 011.97-.27l.181.134a1.482 1.482 0 01.274 1.94l-.136.176-2.69 3.01 4.82.002c.367 0 .723.131 1 .37.278.238.458.567.508.926l.013.204c0 .363-.134.713-.376.986a1.53 1.53 0 01-.94.5l-.208.014h-4.824l2.691 3.016a1.487 1.487 0 01.02 1.96l-.158.158a1.537 1.537 0 01-1.99.02l-.16-.158-4.46-4.996h-4.326l.002 4.262 5.074 4.39a1.481 1.481 0 01.276 1.94l-.136.176a1.542 1.542 0 01-1.97.272l-.18-.134-3.066-2.652v4.748c0 .363-.134.713-.376.986a1.53 1.53 0 01-.942.5l-.207.012c-.369 0-.724-.131-1.002-.37a1.494 1.494 0 01-.508-.926l-.014-.204v-4.746l-3.055 2.648a1.54 1.54 0 01-2.115-.165 1.486 1.486 0 01.104-2.087l5.068-4.39V21.5h-3.967l-4.812 5.396a1.538 1.538 0 01-2.15.137 1.486 1.486 0 01-.14-2.117l3.048-3.414H5.586c-.368 0-.724-.132-1.002-.37a1.493 1.493 0 01-.507-.928L4.063 20c0-.363.133-.713.375-.986a1.53 1.53 0 01.94-.5l.208-.014h4.457l-2.324-2.614a1.495 1.495 0 01-.376-1.087 1.482 1.482 0 01.515-1.03 1.53 1.53 0 011.104-.37 1.541 1.541 0 011.046.507l4.089 4.594h4.688v-4.26l-5.068-4.394a1.481 1.481 0 01-.274-1.94l.136-.176a1.542 1.542 0 011.97-.27l.18.134 3.06 2.65V5.5c0-.329.11-.648.313-.91.202-.26.486-.45.808-.536l.198-.04.205-.014z"
        fill="url(#prefix__paint0_linear)" />
    <defs>
        <linearGradient id="prefix__paint0_linear" x1="9.612" y1="9.785" x2="28.108" y2="27.394"
            gradientUnits="userSpaceOnUse">
            <stop offset=".102" stop-color="#28C2D1" />
            <stop offset=".925" stop-color="#4931DE" />
        </linearGradient>
    </defs>
</svg>