<svg width="40" height="40" fill="none" xmlns="http://www.w3.org/2000/svg">
    <path
        d="M19.994 31.584a1 1 0 01.984.82l.016.18v2.432a1 1 0 01-1.984.18l-.016-.18v-2.432a1 1 0 011-1zm9.474-3.54l.138.116 1.72 1.72a1 1 0 01-1.276 1.53l-.14-.116-1.72-1.72a1 1 0 011.278-1.53zm-17.674.116a1 1 0 01.116 1.276l-.116.138-1.72 1.72a1 1 0 01-1.53-1.276l.116-.138 1.72-1.72a1 1 0 011.414 0zm8.22-17.144a8.98 8.98 0 11.38 17.956 8.98 8.98 0 01-.38-17.956zM35 19.03a1 1 0 01.18 1.984l-.18.016h-2.432a1 1 0 01-.18-1.984l.18-.016H35zm-27.568-.05a1 1 0 01.18 1.984l-.18.016H5a1 1 0 01-.18-1.984L5 18.98h2.432zM9.936 8.588l.14.116 1.72 1.72a1 1 0 01-1.276 1.53l-.14-.116-1.72-1.72a1 1 0 011.276-1.53zm21.39.116a1 1 0 01.116 1.276l-.116.138-1.72 1.72a1 1 0 01-1.53-1.276l.116-.14 1.72-1.72a1 1 0 011.414 0v.002zM20 3.98a1 1 0 01.984.82l.016.18v2.432a1 1 0 01-1.984.18L19 7.412v-2.43a1 1 0 011-1V3.98z"
        fill="url(#prefix__paint0_linear)" />
    <defs>
        <linearGradient id="prefix__paint0_linear" x1="9.463" y1="9.772" x2="27.963" y2="27.096"
            gradientUnits="userSpaceOnUse">
            <stop offset=".102" stop-color="#28C2D1" />
            <stop offset=".925" stop-color="#4931DE" />
        </linearGradient>
    </defs>
</svg>