<svg width="40" height="40" fill="none" xmlns="http://www.w3.org/2000/svg">
    <path
        d="M23.224 24.26a1 1 0 01.074 1.412l-2.054 2.334H25a1 1 0 01.78 1.622l-4.9 6a1 1 0 11-1.566-1.246l3.61-4.376H19a1 1 0 01-.744-1.668l3.554-4.004a1 1 0 011.414-.074zM22 12c4.93 0 7.726 3.148 8.132 6.948h.124c3.172 0 5.744 2.474 5.744 5.526C36 27.526 33.428 30 30.256 30h-2.42c.602-1.692-.462-3.626-2.296-3.948l-.254-.034a3 3 0 00-5.128-2.788L16.77 27a2.952 2.952 0 00-.6 3h-2.426C10.572 30 8 27.526 8 24.474c0-3.052 2.572-5.526 5.744-5.526h.124C14.278 15.122 17.07 12 22 12zm-5.216-6a7.542 7.542 0 016.706 4.09c-.494-.06-.992-.09-1.49-.09-4.78 0-8.264 2.614-9.508 6.572l-.124.428-.092.374-.33.06a7.468 7.468 0 00-5.432 4.516 5.244 5.244 0 012.4-9.712l.444-.01A7.54 7.54 0 0116.784 6z"
        fill="url(#prefix__paint0_linear)" />
    <defs>
        <linearGradient id="prefix__paint0_linear" x1="9.463" y1="11.425" x2="26.827" y2="28.785"
            gradientUnits="userSpaceOnUse">
            <stop offset=".102" stop-color="#28C2D1" />
            <stop offset=".925" stop-color="#4931DE" />
        </linearGradient>
    </defs>
</svg>