<svg width="40" height="40" fill="none" xmlns="http://www.w3.org/2000/svg">
    <path
        d="M19 34a1 1 0 110 2 1 1 0 010-2zm6 0a1 1 0 110 2 1 1 0 010-2zm-9-2a1 1 0 110 2 1 1 0 010-2zm6 0a1 1 0 110 2 1 1 0 010-2zm6 0a1 1 0 110 2 1 1 0 010-2zm-6-20c4.93 0 7.726 3.146 8.132 6.948h.124c3.172 0 5.744 2.474 5.744 5.526C36 27.526 33.428 30 30.256 30H13.744C10.572 30 8 27.526 8 24.474c0-3.052 2.572-5.526 5.744-5.526h.124C14.278 15.12 17.07 12 22 12zM7.606 17.4a1 1 0 01-.454 1.2l-.166.072-1.602.552a1 1 0 01-.816-1.818l.164-.072 1.604-.552a1 1 0 011.27.62V17.4zM17.84 9c.664.324 1.25.746 1.746 1.24-3.524.728-6.06 3.066-7.086 6.312l-.13.448-.092.374-.33.06a7.521 7.521 0 00-2.5 1.008A6.56 6.56 0 0117.84 9zm-12.006.34L6 9.404l1.524.742a1 1 0 01-.708 1.862l-.168-.064-1.524-.742a1 1 0 01.708-1.862h.002zM19.98 4.59a1 1 0 01.524 1.17l-.064.168-.742 1.524a1 1 0 01-1.862-.708l.064-.17.744-1.524a1 1 0 011.336-.46zm-7.58-.064l.074.164.552 1.604a1 1 0 01-1.818.814l-.072-.164-.552-1.602a1 1 0 011.816-.816z"
        fill="url(#prefix__paint0_linear)" />
    <defs>
        <linearGradient id="prefix__paint0_linear" x1="9.509" y1="9.803" x2="27.975" y2="27.095"
            gradientUnits="userSpaceOnUse">
            <stop offset=".102" stop-color="#28C2D1" />
            <stop offset=".925" stop-color="#4931DE" />
        </linearGradient>
    </defs>
</svg>