<svg width="40" height="40" fill="none" xmlns="http://www.w3.org/2000/svg">
    <path
        d="M12.797 30h13.781c.246 0 .483.093.665.261a1.012 1.012 0 01.12 1.345.982.982 0 01-.608.378l-.177.016H12.797a.976.976 0 01-.665-.261 1.012 1.012 0 01-.12-1.345.982.982 0 01.608-.378l.177-.016zm-3.93-4h21.64c.548 0 .993.448.993 1 0 .49-.35.9-.813.984L30.51 28H8.865a.98.98 0 01-.698-.292A1.012 1.012 0 017.875 27c0-.49.35-.9.813-.984L8.865 26h.002zm10.82-20c4.854 0 7.606 3.148 8.005 6.948h.122c3.123 0 5.655 2.474 5.655 5.526 0 3.052-2.532 5.526-5.655 5.526H11.561c-3.123 0-5.655-2.474-5.655-5.526 0-2.94 2.347-5.342 5.31-5.516l.467-.01C12.086 9.122 14.835 6 19.688 6z"
        fill="url(#prefix__paint0_linear)" />
    <defs>
        <linearGradient id="prefix__paint0_linear" x1="10.613" y1="10.701" x2="25.658" y2="25.652"
            gradientUnits="userSpaceOnUse">
            <stop offset=".102" stop-color="#28C2D1" />
            <stop offset=".925" stop-color="#4931DE" />
        </linearGradient>
    </defs>
</svg>