<svg width="40" height="40" fill="none" xmlns="http://www.w3.org/2000/svg">
    <path
        d="M21.656 33.332c.349 0 .683.14.929.39a1.345 1.345 0 010 1.887 1.303 1.303 0 01-1.857 0 1.345 1.345 0 010-1.886c.246-.25.58-.391.928-.391zM17.063 32a1.295 1.295 0 01.962.372 1.335 1.335 0 01.402.961 1.353 1.353 0 01-.402.961 1.312 1.312 0 01-.962.372c-.339-.013-.66-.16-.895-.408a1.345 1.345 0 010-1.85c.235-.248.556-.395.895-.408zm9.187 0a1.295 1.295 0 01.96.372 1.336 1.336 0 01.403.961 1.352 1.352 0 01-.402.961 1.313 1.313 0 01-.961.372c-.34-.013-.66-.16-.896-.408a1.345 1.345 0 010-1.85c.235-.248.556-.395.896-.408zm-4.594-20c4.853 0 7.606 3.146 8.005 6.948h.122c3.123 0 5.655 2.474 5.655 5.526 0 3.052-2.532 5.526-5.655 5.526H13.53c-3.122 0-5.654-2.474-5.654-5.526 0-3.052 2.532-5.526 5.654-5.526h.122C14.055 15.12 16.803 12 21.656 12zM7.487 17.4c.076.222.073.463-.009.682a.995.995 0 01-.438.518l-.163.072-1.577.552a.97.97 0 01-.714-.025.992.992 0 01-.51-.51 1.015 1.015 0 01-.035-.724.996.996 0 01.456-.559l.161-.072 1.58-.552a.97.97 0 01.75.047.995.995 0 01.5.573V17.4zM17.561 9c.654.324 1.23.746 1.72 1.24-3.47.728-5.966 3.066-6.976 6.312l-.128.448-.09.374-.326.06a7.337 7.337 0 00-2.46 1.008 6.641 6.641 0 01.607-7.902 6.435 6.435 0 013.572-2.077A6.367 6.367 0 0117.56 9zm-11.818.34l.163.064 1.5.742c.222.11.395.299.485.53.09.233.093.491.005.725a.995.995 0 01-.477.537.971.971 0 01-.71.07l-.165-.064-1.5-.742a.994.994 0 01-.485-.53 1.015 1.015 0 01-.005-.725.995.995 0 01.478-.537.97.97 0 01.709-.07h.002zm13.925-4.75a.993.993 0 01.467.49c.094.214.111.454.049.68l-.063.168-.73 1.524a.99.99 0 01-.523.492.97.97 0 01-.713.006.99.99 0 01-.53-.485 1.014 1.014 0 01-.068-.721l.063-.17.733-1.524a.99.99 0 01.564-.506.97.97 0 01.75.046zm-7.462-.064l.073.164.544 1.604c.08.236.07.494-.028.723a.993.993 0 01-.501.515.97.97 0 01-.712.036.988.988 0 01-.549-.46l-.07-.164-.544-1.602a1.015 1.015 0 01.03-.72.993.993 0 01.498-.513.97.97 0 01.71-.039c.232.077.428.24.55.456z"
        fill="url(#prefix__paint0_linear)" />
    <defs>
        <linearGradient id="prefix__paint0_linear" x1="9.361" y1="9.803" x2="27.805" y2="26.805"
            gradientUnits="userSpaceOnUse">
            <stop offset=".102" stop-color="#28C2D1" />
            <stop offset=".925" stop-color="#4931DE" />
        </linearGradient>
    </defs>
</svg>