<svg width="31" height="24" fill="none" xmlns="http://www.w3.org/2000/svg">
    <path
        d="M16.988 6.651c4.682 0 7.338 3.033 7.724 6.697h.118c3.013 0 5.456 2.385 5.456 5.326 0 2.942-2.443 5.326-5.456 5.326H9.145c-3.012 0-5.454-2.384-5.454-5.326 0-2.941 2.442-5.326 5.455-5.326h.118c.389-3.688 3.042-6.697 7.724-6.697zM3.374 12.576c.161.272.212.594.144.901-.068.307-.25.579-.512.762l-.105.065-.96.543a1.317 1.317 0 01-.952.135 1.293 1.293 0 01-.783-.545 1.244 1.244 0 01-.183-.925c.063-.32.25-.603.52-.791l.105-.066.96-.543c.297-.167.65-.213.981-.126.331.087.614.299.785.59zm10.444-6.9c-2.808.883-4.809 2.959-5.63 5.73l-.069.245-.086.344-.304.056a6.934 6.934 0 00-2.47 1.035 5.599 5.599 0 01-.72-3.778A5.669 5.669 0 016.43 5.941a5.893 5.893 0 013.645-1.427 5.91 5.91 0 013.742 1.162zM1.85 5.192l.098.04 1.005.458c.304.137.542.384.664.69a1.24 1.24 0 01-.011.947 1.279 1.279 0 01-.68.675c-.308.13-.655.138-.968.023l-.098-.04-1.005-.46a1.277 1.277 0 01-.658-.69 1.24 1.24 0 01.013-.943c.129-.301.371-.542.677-.673.305-.13.65-.14.963-.027zm14.12-4.167c.265.182.451.455.52.766.07.31.018.635-.146.909l-.057.087-.636.89c-.19.268-.48.455-.809.52-.328.063-.669 0-.95-.176a1.267 1.267 0 01-.56-.773 1.243 1.243 0 01.144-.936l.057-.087.636-.89a1.28 1.28 0 01.835-.52 1.32 1.32 0 01.966.21zM8.364.72l.048.113.38 1.02a1.24 1.24 0 01-.03.941 1.28 1.28 0 01-.684.662 1.319 1.319 0 01-.963.015 1.283 1.283 0 01-.706-.64l-.048-.113-.379-1.02a1.24 1.24 0 01.03-.94 1.28 1.28 0 01.685-.66c.306-.125.65-.13.96-.015.311.116.564.344.707.638z"
        fill="url(#prefix__paint0_linear)" />
    <defs>
        <linearGradient id="prefix__paint0_linear" x1="5.172" y1="4.339" x2="18.866" y2="20.539"
            gradientUnits="userSpaceOnUse">
            <stop offset=".102" stop-color="#28C2D1" />
            <stop offset=".925" stop-color="#4931DE" />
        </linearGradient>
    </defs>
</svg>