<svg width="40" height="40" fill="none" xmlns="http://www.w3.org/2000/svg">
    <path
        d="M20.03 8.036c4.93 0 7.726 3.146 8.132 6.948h.124c3.172 0 5.744 2.474 5.744 5.526 0 3.05-2.572 5.526-5.744 5.526l-1.432-.002-.02.05-2.966 5.408a1 1 0 01-1.828-.792l.072-.166 2.47-4.5h-3.706l-.02.05-2.966 5.408a1 1 0 01-1.828-.792l.072-.166 2.47-4.5h-3.74l-2.974 5.458a1 1 0 01-1.192.47l-.164-.072a1 1 0 01-.472-1.19l.072-.166 2.45-4.5h-.81c-3.172 0-5.744-2.472-5.744-5.524 0-2.94 2.384-5.342 5.394-5.516l.474-.01c.41-3.826 3.204-6.948 8.132-6.948z"
        fill="url(#prefix__paint0_linear)" />
    <defs>
        <linearGradient id="prefix__paint0_linear" x1="10.811" y1="12.371" x2="24.631" y2="27.498"
            gradientUnits="userSpaceOnUse">
            <stop offset=".102" stop-color="#28C2D1" />
            <stop offset=".925" stop-color="#4931DE" />
        </linearGradient>
    </defs>
</svg>