<svg width="41" height="40" fill="none" xmlns="http://www.w3.org/2000/svg">
    <path
        d="M29.495 20.032a8.884 8.884 0 00-2.407-6.098 9.16 9.16 0 00-5.977-2.863 9.204 9.204 0 00-6.36 1.899 8.935 8.935 0 00-3.355 5.648c.935-.074 1.87-.05 2.798.064 2.745.34 5.29 1.45 7.658 2.808 1.442.83 3.267 1.066 5.185.806a12.32 12.32 0 002.291-.546c.11-.556.167-1.132.167-1.72v.002z"
        fill="url(#prefix__prefix__paint0_linear)" />
    <path
        d="M10.313 8.764l-.14-.116a1.028 1.028 0 00-1.36.18.99.99 0 00.064 1.35l1.743 1.716.142.116a1.028 1.028 0 001.36-.18.99.99 0 00-.063-1.35l-1.746-1.716z"
        fill="url(#prefix__prefix__paint1_linear)" />
    <path
        d="M31.978 10.04a.988.988 0 00-.184-1.338 1.026 1.026 0 00-1.37.062l-1.746 1.716-.117.14a.988.988 0 00.188 1.333 1.026 1.026 0 001.366-.059l1.745-1.716.118-.14v.002z"
        fill="url(#prefix__prefix__paint2_linear)" />
    <path
        d="M21.374 4.87a.998.998 0 00-.384-.618 1.028 1.028 0 00-1.366.122.992.992 0 00-.265.676v2.426l.016.18a.998.998 0 00.384.618 1.028 1.028 0 001.366-.122.99.99 0 00.265-.676V5.048l-.016-.18v.002z"
        fill="url(#prefix__prefix__paint3_linear)" />
    <path
        d="M7.599 23.878c2.145-1.152 4.136-1.468 6.089-1.228 1.979.246 3.982 1.07 6.115 2.296 2.445 1.402 5.25 1.658 7.79 1.312 2.536-.346 4.897-1.302 6.522-2.444a.988.988 0 00.236-1.396 1.029 1.029 0 00-1.418-.232c-1.337.94-3.385 1.786-5.618 2.09-2.229.304-4.543.06-6.488-1.058-2.25-1.292-4.524-2.26-6.887-2.552-2.387-.294-4.805.108-7.314 1.456a1.013 1.013 0 00-.489.596.986.986 0 00.083.76 1.013 1.013 0 001 .516c.133-.014.262-.053.379-.116z"
        fill="url(#prefix__prefix__paint4_linear)" />
    <path
        d="M13.688 26.65c-1.953-.24-3.944.076-6.09 1.228a1.028 1.028 0 01-1.379-.398.99.99 0 01.405-1.358c2.51-1.348 4.929-1.75 7.318-1.456 2.36.292 4.634 1.26 6.888 2.552 1.942 1.116 4.256 1.362 6.485 1.06 2.23-.306 4.28-1.15 5.618-2.092a1.029 1.029 0 011.418.232.988.988 0 01-.236 1.396c-1.625 1.14-3.988 2.098-6.522 2.444-2.54.346-5.345.09-7.79-1.312-2.133-1.226-4.136-2.05-6.115-2.296z"
        fill="url(#prefix__prefix__paint5_linear)" />
    <path
        d="M7.599 31.878c2.145-1.152 4.136-1.468 6.089-1.228 1.979.246 3.982 1.07 6.115 2.296 2.445 1.402 5.25 1.658 7.79 1.312 2.536-.346 4.897-1.302 6.522-2.444a.988.988 0 00.236-1.396 1.029 1.029 0 00-1.418-.232c-1.337.94-3.385 1.786-5.618 2.09-2.229.304-4.543.06-6.488-1.058-2.25-1.292-4.524-2.26-6.887-2.552-2.387-.294-4.805.108-7.314 1.456a1.003 1.003 0 00-.489.596.986.986 0 00.083.761 1.03 1.03 0 001.379.399z"
        fill="url(#prefix__prefix__paint6_linear)" />
    <defs>
        <linearGradient id="prefix__prefix__paint0_linear" x1="14.487" y1="13.095" x2="20.56" y2="22.171"
            gradientUnits="userSpaceOnUse">
            <stop offset=".102" stop-color="#28C2D1" />
            <stop offset=".925" stop-color="#4931DE" />
        </linearGradient>
        <linearGradient id="prefix__prefix__paint1_linear" x1="9.223" y1="9.142" x2="11.373" y2="11.19"
            gradientUnits="userSpaceOnUse">
            <stop offset=".102" stop-color="#28C2D1" />
            <stop offset=".925" stop-color="#4931DE" />
        </linearGradient>
        <linearGradient id="prefix__prefix__paint2_linear" x1="29.028" y1="9.141" x2="31.175" y2="11.187"
            gradientUnits="userSpaceOnUse">
            <stop offset=".102" stop-color="#28C2D1" />
            <stop offset=".925" stop-color="#4931DE" />
        </linearGradient>
        <linearGradient id="prefix__prefix__paint3_linear" x1="19.706" y1="4.849" x2="21.566" y2="5.649"
            gradientUnits="userSpaceOnUse">
            <stop offset=".102" stop-color="#28C2D1" />
            <stop offset=".925" stop-color="#4931DE" />
        </linearGradient>
        <linearGradient id="prefix__prefix__paint4_linear" x1="10.953" y1="21.627" x2="12.357" y2="28.058"
            gradientUnits="userSpaceOnUse">
            <stop offset=".102" stop-color="#28C2D1" />
            <stop offset=".925" stop-color="#4931DE" />
        </linearGradient>
        <linearGradient id="prefix__prefix__paint5_linear" x1="10.952" y1="25.627" x2="12.356" y2="32.058"
            gradientUnits="userSpaceOnUse">
            <stop offset=".102" stop-color="#28C2D1" />
            <stop offset=".925" stop-color="#4931DE" />
        </linearGradient>
        <linearGradient id="prefix__prefix__paint6_linear" x1="10.953" y1="29.628" x2="12.357" y2="36.058"
            gradientUnits="userSpaceOnUse">
            <stop offset=".102" stop-color="#28C2D1" />
            <stop offset=".925" stop-color="#4931DE" />
        </linearGradient>
    </defs>
</svg>