<svg width="41" height="40" fill="none" xmlns="http://www.w3.org/2000/svg">
    <path
        d="M22.38 12.036c5.008 0 7.848 3.146 8.26 6.948h.127c3.222 0 5.835 2.474 5.835 5.526 0 3.05-2.613 5.526-5.835 5.526l-1.455-.002-.02.05-3.022 5.408c-.119.223-.32.393-.56.477a1.031 1.031 0 01-.741-.026 1.008 1.008 0 01-.526-.514.986.986 0 01-.032-.729l.074-.166 2.519-4.5h-3.765l-.02.05-3.023 5.408a1.012 1.012 0 01-.562.461c-.239.08-.5.07-.73-.03a1.009 1.009 0 01-.522-.504.986.986 0 01-.041-.719l.07-.166 2.52-4.5h-3.8l-3.02 5.458a1.011 1.011 0 01-.52.451 1.03 1.03 0 01-.691.019l-.167-.072a1.005 1.005 0 01-.459-.51.985.985 0 01-.02-.68l.073-.166 2.489-4.5h-.823c-3.223 0-5.836-2.472-5.836-5.524 0-2.94 2.422-5.342 5.48-5.516l.482-.01c.416-3.826 3.255-6.948 8.26-6.948zm-10.478-8a8.706 8.706 0 013.85 1.13 8.572 8.572 0 012.53 2.178 8.425 8.425 0 011.491 2.966c-3.503.76-6.02 3.08-7.046 6.284l-.132.44-.094.376-.335.06a7.646 7.646 0 00-4.47 2.724 8.576 8.576 0 01-3.377-2.836 1.247 1.247 0 01.622-1.898c2.796-.984 4.301-2.092 5.16-3.71.944-1.768 1.116-3.64.492-6.16-.203-.82.454-1.6 1.309-1.552v-.002z"
        fill="url(#prefix__paint0_linear)" />
    <defs>
        <linearGradient id="prefix__paint0_linear" x1="9.645" y1="9.819" x2="28.135" y2="27.433"
            gradientUnits="userSpaceOnUse">
            <stop offset=".102" stop-color="#28C2D1" />
            <stop offset=".925" stop-color="#4931DE" />
        </linearGradient>
    </defs>
</svg>