<svg width="41" height="40" fill="none" xmlns="http://www.w3.org/2000/svg">
    <path
        d="M29.61 30.808l6.448 6.325a1.288 1.288 0 001.39.272 1.277 1.277 0 00.69-.677 1.231 1.231 0 00-.275-1.363L4.726 2.865a1.278 1.278 0 00-.903-.367 1.298 1.298 0 00-.902.367 1.25 1.25 0 00-.374.885 1.23 1.23 0 00.374.885l13.342 13.083c-2.193 4.825-7.005 6.465-10.12 7.02a1.286 1.286 0 00-.533.227 1.23 1.23 0 00-.385 1.547 15.063 15.063 0 004.526 5.432 15.444 15.444 0 006.549 2.82c2.38.42 4.826.28 7.14-.409a15.363 15.363 0 006.17-3.547z"
        fill="url(#prefix__paint0_linear)" />
    <path
        d="M34.3 20c0 2.425-.587 4.715-1.627 6.74L17.63 11.987a21.658 21.658 0 00-.37-5.5 1.227 1.227 0 01.26-1.01 1.27 1.27 0 01.951-.467c2.052-.07 4.098.265 6.015.987A15.336 15.336 0 0129.63 9.21a14.994 14.994 0 013.454 4.929 14.753 14.753 0 011.217 5.86z"
        fill="url(#prefix__paint1_linear)" />
    <defs>
        <linearGradient id="prefix__paint0_linear" x1="8.642" y1="8.826" x2="28.875" y2="28.166"
            gradientUnits="userSpaceOnUse">
            <stop offset=".102" stop-color="#28C2D1" />
            <stop offset=".925" stop-color="#4931DE" />
        </linearGradient>
        <linearGradient id="prefix__paint1_linear" x1="20.151" y1="8.931" x2="32.161" y2="17.767"
            gradientUnits="userSpaceOnUse">
            <stop offset=".102" stop-color="#28C2D1" />
            <stop offset=".925" stop-color="#4931DE" />
        </linearGradient>
    </defs>
</svg>