<svg width="41" height="40" fill="none" xmlns="http://www.w3.org/2000/svg">
    <path
        d="M22.344 33.334a1.374 1.374 0 01.992.372 1.334 1.334 0 01.415.961 1.317 1.317 0 01-.415.961 1.36 1.36 0 01-.992.372 1.364 1.364 0 01-.924-.408 1.323 1.323 0 010-1.85c.243-.248.574-.395.924-.408zM17.604 32a1.374 1.374 0 01.993.372 1.334 1.334 0 01.415.961 1.317 1.317 0 01-.415.961 1.36 1.36 0 01-.992.372 1.364 1.364 0 01-.924-.408 1.323 1.323 0 010-1.85c.243-.248.574-.395.924-.408zm9.479 0a1.374 1.374 0 01.992.372 1.334 1.334 0 01.415.961 1.317 1.317 0 01-.415.961 1.36 1.36 0 01-.992.372 1.364 1.364 0 01-.924-.408 1.323 1.323 0 010-1.85c.243-.248.574-.395.924-.408zm-4.74-20c5.008 0 7.848 3.148 8.26 6.948h.126c3.221 0 5.834 2.474 5.834 5.526 0 3.052-2.613 5.526-5.834 5.526h-16.77c-3.222 0-5.834-2.474-5.834-5.526 0-2.94 2.421-5.342 5.478-5.516l.482-.01C14.5 15.122 17.337 12 22.344 12zM11.87 4a8.703 8.703 0 013.849 1.13 8.569 8.569 0 012.53 2.179 8.424 8.424 0 011.49 2.967c-3.502.76-6.019 3.08-7.047 6.282l-.13.442-.093.374-.335.06a7.643 7.643 0 00-4.469 2.724 8.574 8.574 0 01-3.376-2.836 1.247 1.247 0 01.622-1.896c2.795-.984 4.3-2.092 5.159-3.712.94-1.766 1.115-3.64.492-6.16-.204-.818.453-1.598 1.308-1.552V4z"
        fill="url(#prefix__paint0_linear)" />
    <defs>
        <linearGradient id="prefix__paint0_linear" x1="9.613" y1="9.786" x2="28.109" y2="27.394"
            gradientUnits="userSpaceOnUse">
            <stop offset=".102" stop-color="#28C2D1" />
            <stop offset=".925" stop-color="#4931DE" />
        </linearGradient>
    </defs>
</svg>