<svg width="40" height="40" fill="none" xmlns="http://www.w3.org/2000/svg">
    <path
        d="M20 8c4.93 0 7.726 3.148 8.132 6.948h.124c3.172 0 5.744 2.474 5.744 5.526C34 23.526 31.428 26 28.256 26h-3.004a1 1 0 11-1.896 0l-8.474-.002-2.992 5.492a1 1 0 01-1.828-.79l.072-.166 2.47-4.536-.86.002C8.572 26 6 23.526 6 20.474c0-3.052 2.572-5.526 5.744-5.526h.124C12.278 11.122 15.07 8 20 8zm3 22a1 1 0 110 2 1 1 0 010-2zm-4.396-1.88a.98.98 0 01.47 1.174l-.072.164-1.124 2.028a1.008 1.008 0 01-1.807-.107.98.98 0 01-.021-.673l.072-.164 1.124-2.028a1.009 1.009 0 011.358-.394zM27 28a1 1 0 110 2 1 1 0 010-2z"
        fill="url(#prefix__paint0_linear)" />
    <defs>
        <linearGradient id="prefix__paint0_linear" x1="10.781" y1="12.341" x2="24.62" y2="27.47"
            gradientUnits="userSpaceOnUse">
            <stop offset=".102" stop-color="#28C2D1" />
            <stop offset=".925" stop-color="#4931DE" />
        </linearGradient>
    </defs>
</svg>