<svg width="41" height="40" fill="none" xmlns="http://www.w3.org/2000/svg">
    <path
        d="M31.48 16a5.12 5.12 0 013.54 1.402 4.965 4.965 0 011.55 3.433 4.955 4.955 0 01-1.316 3.526 5.11 5.11 0 01-3.438 1.629l-.336.01c-.032 0-.067 0-.1-.004l-.237.018h-1.507c.23.542.353 1.136.353 1.758a4.637 4.637 0 01-.352 1.827 4.695 4.695 0 01-1.044 1.55 4.78 4.78 0 01-1.573 1.029 4.839 4.839 0 01-1.855.348c-2.037 0-3.534-.886-4.326-2.35a1.48 1.48 0 01-.126-1.094c.1-.367.34-.683.667-.883a1.543 1.543 0 012.04.397l.203.326c.277.388.732.604 1.544.604a1.752 1.752 0 001.273-.5 1.699 1.699 0 00.502-1.254c0-.88-.735-1.63-1.714-1.734l-.437-.024H5.586c-.386 0-.758-.145-1.04-.404a1.484 1.484 0 01-.142-2.043 1.53 1.53 0 01.975-.539l.207-.014h25.557l.098.004.12-.014.357-.018c.348-.041.68-.17.962-.375.282-.204.506-.477.65-.792a1.972 1.972 0 00-.187-1.962c-.2-.283-.472-.51-.788-.66a2.06 2.06 0 00-1.996.133c-.293.19-.53.45-.69.758l-.183.414c-.18.337-.484.593-.849.718a1.546 1.546 0 01-1.117-.046 1.511 1.511 0 01-.785-.785 1.478 1.478 0 01-.028-1.101 5.014 5.014 0 011.86-2.384A5.137 5.137 0 0131.48 16zm-12.187 3.99H5.586c-.386 0-.758-.144-1.04-.404a1.484 1.484 0 01-.142-2.043 1.53 1.53 0 01.975-.539l.207-.014h13.709c.803 0 1.589-.235 2.257-.674a4.014 4.014 0 001.496-1.795c.308-.731.388-1.536.231-2.311a3.982 3.982 0 00-1.111-2.049 4.083 4.083 0 00-2.08-1.094 4.122 4.122 0 00-2.348.227 4.05 4.05 0 00-1.823 1.474 3.956 3.956 0 00-.685 2.222c0 .398-.16.78-.446 1.06a1.536 1.536 0 01-2.154 0 1.488 1.488 0 01-.447-1.06c0-1.348.396-2.666 1.138-3.798a7.079 7.079 0 013.049-2.583 7.21 7.21 0 013.983-.54A7.158 7.158 0 0124 7.741a6.986 6.986 0 012.139 3.354 6.895 6.895 0 01-.051 3.959 6.994 6.994 0 01-2.225 3.299 7.165 7.165 0 01-3.687 1.582l-.203.04-.209.014H5.586h13.709-.002z"
        fill="url(#prefix__paint0_linear)" />
    <defs>
        <linearGradient id="prefix__paint0_linear" x1="9.615" y1="10.788" x2="24.825" y2="28.256"
            gradientUnits="userSpaceOnUse">
            <stop offset=".102" stop-color="#28C2D1" />
            <stop offset=".925" stop-color="#4931DE" />
        </linearGradient>
    </defs>
</svg>