<svg width="40" height="40" fill="none" xmlns="http://www.w3.org/2000/svg">
    <path
        d="M16.738 30c.262 0 .512.105.697.293a1.008 1.008 0 010 1.414.977.977 0 01-1.393 0 1.008 1.008 0 010-1.414.977.977 0 01.696-.293zm5.908 0c.261 0 .512.105.696.293a1.008 1.008 0 010 1.414.977.977 0 01-1.392 0 1.008 1.008 0 010-1.414.977.977 0 01.696-.293zm-8.861-2c.26 0 .511.105.696.293a1.008 1.008 0 010 1.414.977.977 0 01-1.393 0 1.008 1.008 0 010-1.414.977.977 0 01.697-.293zm5.907 0c.261 0 .512.105.697.293a1.008 1.008 0 010 1.414.977.977 0 01-1.393 0 1.008 1.008 0 010-1.414.977.977 0 01.696-.293zm5.908 0c.261 0 .512.105.696.293a1.008 1.008 0 010 1.414.977.977 0 01-1.392 0 1.008 1.008 0 010-1.414A.977.977 0 0125.6 28zM19.692 8c4.855 0 7.607 3.148 8.007 6.948h.122c3.123 0 5.656 2.474 5.656 5.526 0 3.052-2.532 5.526-5.656 5.526H11.563c-3.123 0-5.655-2.474-5.655-5.526 0-2.94 2.347-5.342 5.31-5.516l.467-.01C12.09 11.122 14.838 8 19.692 8z"
        fill="url(#prefix__paint0_linear)" />
    <defs>
        <linearGradient id="prefix__paint0_linear" x1="10.616" y1="12.339" x2="24.466" y2="27.253"
            gradientUnits="userSpaceOnUse">
            <stop offset=".102" stop-color="#28C2D1" />
            <stop offset=".925" stop-color="#4931DE" />
        </linearGradient>
    </defs>
</svg>