<svg width="42" height="36" fill="none" xmlns="http://www.w3.org/2000/svg">
    <path
        d="M38.571 0c-.786 0-1.54.317-2.097.88a3.02 3.02 0 00-.87 2.12v3h-2.967a5.067 5.067 0 01-2.786-1.04 5.155 5.155 0 01-1.74-2.434 1.51 1.51 0 00-.541-.74 1.483 1.483 0 00-.867-.286 1.457 1.457 0 00-.866.278 1.484 1.484 0 00-.539.74 5.158 5.158 0 01-1.74 2.439A5.07 5.07 0 0120.77 6a5.067 5.067 0 01-2.786-1.04 5.155 5.155 0 01-1.74-2.434 1.51 1.51 0 00-.541-.74 1.482 1.482 0 00-.867-.286 1.43 1.43 0 00-.87.272c-.254.184-.441.446-.535.746a5.159 5.159 0 01-1.74 2.439A5.07 5.07 0 018.901 6H5.934V3a3.02 3.02 0 00-.87-2.12A2.954 2.954 0 002.967 0H0v3h2.967v30c0 .795.314 1.558.87 2.12.556.563 1.31.88 2.097.88h29.67c.787 0 1.541-.317 2.098-.88a3.02 3.02 0 00.87-2.12V3h2.966V0h-2.967zM5.934 33v-6h5.934v-3H5.934v-6h5.934v-3H5.934V9h2.967a7.25 7.25 0 003.32-.772 7.337 7.337 0 002.614-2.208 7.466 7.466 0 002.621 2.194 7.38 7.38 0 006.626 0 7.467 7.467 0 002.621-2.195 7.336 7.336 0 002.614 2.209 7.25 7.25 0 003.32.772h2.967v24H5.934z"
        fill="url(#prefix__paint0_linear)" />
    <defs>
        <linearGradient id="prefix__paint0_linear" x1="7.093" y1="6.509" x2="27.862" y2="28.973"
            gradientUnits="userSpaceOnUse">
            <stop offset=".102" stop-color="#28C2D1" />
            <stop offset=".925" stop-color="#4931DE" />
        </linearGradient>
    </defs>
</svg>