<svg width="10" height="10" fill="none" xmlns="http://www.w3.org/2000/svg">
    <path
        d="M9.994 4.94A5.136 5.136 0 005.357.73V0h-.714v.73A5.136 5.136 0 00.005 4.94a.357.357 0 00.534.367c.263-.182.57-.289.89-.307a1.738 1.738 0 011.478.896.371.371 0 00.614 0 1.793 1.793 0 011.122-.851v3.348a.893.893 0 01-1.786 0v-.179h-.714v.179a1.607 1.607 0 103.214 0V5.045a1.793 1.793 0 011.121.852.357.357 0 00.615 0A1.738 1.738 0 018.57 5c.32.018.627.125.89.307a.357.357 0 00.534-.368zm-8.566-.654c-.181 0-.362.025-.536.076a4.443 4.443 0 013.031-2.79 5.184 5.184 0 00-1.088 3.19 2.337 2.337 0 00-1.407-.476zm3.572 0a2.34 2.34 0 00-1.449.51C3.564 4.004 3.768 2.48 5 1.52c1.225.956 1.432 2.482 1.447 3.276A2.34 2.34 0 005 4.285zm3.571 0a2.337 2.337 0 00-1.407.476 5.184 5.184 0 00-1.087-3.19 4.443 4.443 0 013.031 2.79 1.932 1.932 0 00-.537-.076z"
        fill="#91A7B7" />
</svg>