<svg width="18" height="18" fill="none" xmlns="http://www.w3.org/2000/svg">
    <path
        d="M17.99 8.89a9.244 9.244 0 00-8.347-7.575V0H8.357v1.315A9.244 9.244 0 00.009 8.891a.643.643 0 00.961.662A3.121 3.121 0 012.571 9a3.127 3.127 0 012.662 1.614.669.669 0 001.105 0A3.227 3.227 0 018.357 9.08v6.026a1.607 1.607 0 11-3.214 0v-.321H3.857v.321a2.893 2.893 0 105.786 0V9.08a3.227 3.227 0 012.018 1.534.643.643 0 001.106 0A3.128 3.128 0 0115.428 9a3.12 3.12 0 011.6.553.643.643 0 00.963-.662h-.001zM2.571 7.715c-.327 0-.652.046-.966.137A7.998 7.998 0 017.06 2.83a9.332 9.332 0 00-1.958 5.743 4.207 4.207 0 00-2.532-.858zm6.429 0a4.213 4.213 0 00-2.608.92c.024-1.428.391-4.173 2.608-5.9 2.205 1.722 2.577 4.469 2.604 5.898A4.212 4.212 0 009 7.714zm6.428 0a4.207 4.207 0 00-2.532.857 9.332 9.332 0 00-1.958-5.743 7.997 7.997 0 015.456 5.023 3.476 3.476 0 00-.966-.137z"
        fill="#3E8EED" />
</svg>