<svg width="21" height="18" fill="none" xmlns="http://www.w3.org/2000/svg">
    <path
        d="M6.297 9H.643A.645.645 0 000 9.641v1.286c0 .354.29.643.643.643h5.714c.639 0 1.238.438 1.342 1.07a1.287 1.287 0 01-2.491.622c-.085-.253-.346-.406-.611-.406H3.279c-.394 0-.711.354-.639.74a3.867 3.867 0 003.785 3.118 3.862 3.862 0 003.826-4.364c-.245-1.945-1.997-3.352-3.954-3.352zM.643 7.713h13.502a3.865 3.865 0 003.769-4.69A3.844 3.844 0 0014.976.087 3.866 3.866 0 0010.36 3.12c-.076.385.245.735.635.735h1.318c.27 0 .527-.153.61-.406.174-.51.656-.88 1.223-.88.779 0 1.402.7 1.27 1.503-.105.63-.7 1.069-1.343 1.069H.642A.645.645 0 000 5.785V7.07c0 .353.29.643.643.643zm15.43 1.285h-6.28a5.08 5.08 0 011.599 2.572h4.681a1.93 1.93 0 010 3.858c-.719 0-1.338-.398-1.671-.98-.117-.202-.35-.306-.583-.306h-1.358c-.438 0-.764.434-.615.848.715 2.033 2.833 3.407 5.2 2.905 1.655-.35 3.017-1.672 3.403-3.323a4.51 4.51 0 00-4.376-5.574z"
        fill="#3E8EED" />
</svg>