<svg width="21" height="21" fill="none" xmlns="http://www.w3.org/2000/svg">
    <path
        d="M10.496 17.802a.782.782 0 01.774.676l.007.106v1.563a.782.782 0 01-1.555.105l-.007-.105v-1.563a.781.781 0 01.78-.78v-.002zm6.273-2.158l1.104 1.104a.782.782 0 11-1.104 1.105l-1.104-1.104a.781.781 0 011.104-1.105zm-11.44 0a.781.781 0 010 1.104l-1.106 1.106a.781.781 0 01-1.104-1.104l1.104-1.105a.781.781 0 011.104 0l.001-.001zm5.171-10.9a5.755 5.755 0 110 11.51 5.755 5.755 0 010-11.51zm0 1.563a4.193 4.193 0 100 8.385 4.193 4.193 0 000-8.385zm9.635 3.43a.781.781 0 01.107 1.556l-.107.007h-1.562a.78.78 0 01-.106-1.555l.106-.007h1.562zm-17.708-.03a.781.781 0 01.106 1.557l-.106.006H.865a.78.78 0 01-.107-1.555l.107-.008h1.562zm1.708-6.635l.088.075L5.327 4.25A.781.781 0 014.31 5.432l-.087-.076-1.104-1.104a.781.781 0 011.016-1.181zm13.738.075a.781.781 0 01.076 1.018l-.076.087-1.104 1.104a.78.78 0 01-1.18-1.016l.075-.088 1.104-1.105a.78.78 0 011.105 0zM10.5.073a.781.781 0 01.774.675l.007.106v1.563a.781.781 0 01-1.555.105l-.007-.106V.853A.781.781 0 0110.5.072z"
        fill="#FF7A00" />
</svg>