<svg width="21" height="20" fill="none" xmlns="http://www.w3.org/2000/svg">
    <path
        d="M11.281.865a.781.781 0 10-1.562 0v1.562a.781.781 0 101.562 0V.865zM17.823 3.177a.781.781 0 010 1.104l-1.104 1.105a.781.781 0 01-1.106-1.104l1.105-1.105a.78.78 0 011.105 0zM16.135 11.542a5.73 5.73 0 10-11.27 0h-4a.781.781 0 100 1.562h19.27a.781.781 0 000-1.562h-4zM10.5 6.333a4.167 4.167 0 014.035 5.209h-8.07A4.167 4.167 0 0110.5 6.333zM4.25 15.448a.781.781 0 01.781-.781H15.97a.781.781 0 110 1.562H5.03a.781.781 0 01-.781-.781zM8.417 18.573a.781.781 0 01.78-.781h2.605a.781.781 0 110 1.562H9.198a.781.781 0 01-.781-.781zM3.177 3.177a.781.781 0 011.104 0l1.105 1.104a.781.781 0 11-1.104 1.105L3.177 4.282a.781.781 0 010-1.105z"
        fill="#FFD590" />
</svg>