<svg width="35" height="31" fill="none" xmlns="http://www.w3.org/2000/svg">
    <g clip-path="url(#prefix__clip0)">
        <path
            d="M18.267 3.733A9.02 9.02 0 0124.6.703a9.003 9.003 0 016.582 2.434 9.037 9.037 0 012.85 6.425 9.052 9.052 0 01-2.608 6.526L18.169 29.495a1.037 1.037 0 01-1.475 0L3.441 16.088a9.044 9.044 0 01-.364-12.326c3.58-4.08 9.92-4.093 13.52-.029l.835.943.835-.943zM30.23 5.134a6.946 6.946 0 00-5.2-2.362 6.934 6.934 0 00-5.21 2.34l-1.613 1.82a1.038 1.038 0 01-1.552 0l-1.611-1.82a6.947 6.947 0 00-4.882-2.357A6.933 6.933 0 005.076 4.63a6.958 6.958 0 00-2.194 4.964 6.97 6.97 0 002.032 5.033l12.518 12.66 12.516-12.66a6.964 6.964 0 00.28-9.492z"
            fill="#F7B548" />
    </g>
    <defs>
        <clipPath id="prefix__clip0">
            <path fill="#fff" d="M0 0h34.863v30.08H0z" />
        </clipPath>
    </defs>
</svg>