<svg width="28" height="31" fill="none" xmlns="http://www.w3.org/2000/svg">
    <g clip-path="url(#prefix__clip0)">
        <g clip-path="url(#prefix__clip1)">
            <path
                d="M11.539.677a2.981 2.981 0 013.782 0L25.73 9.18a3.094 3.094 0 011.13 2.4v15.422c0 1.7-1.352 3.077-3.022 3.077H19.81c-1.669 0-3.021-1.377-3.021-3.077v-7.41c0-.567-.45-1.026-1.008-1.026h-4.7c-.556 0-1.007.46-1.007 1.025v7.412c0 1.7-1.353 3.077-3.022 3.077H3.02C1.354 30.08 0 28.702 0 27.002V11.58a3.1 3.1 0 011.13-2.4L11.54.678zm2.521 1.6a.994.994 0 00-1.26 0L2.39 10.779a1.032 1.032 0 00-.376.8v15.423c0 .567.45 1.026 1.007 1.026H7.05c.556 0 1.007-.459 1.007-1.026v-7.41c0-1.7 1.353-3.077 3.022-3.077h4.7c1.669 0 3.022 1.377 3.022 3.076v7.412c0 .567.45 1.026 1.007 1.026h4.03c.556 0 1.007-.459 1.007-1.026V11.58a1.03 1.03 0 00-.377-.8L14.06 2.277z"
                fill="#F7B548" />
        </g>
    </g>
    <defs>
        <clipPath id="prefix__clip0">
            <path fill="#fff" d="M0 0h27.019v30.08H0z" />
        </clipPath>
        <clipPath id="prefix__clip1">
            <path fill="#fff" d="M0 0h27.019v30.08H0z" />
        </clipPath>
    </defs>
</svg>