<svg width="228" height="185" fill="none" xmlns="http://www.w3.org/2000/svg">
    <path
        d="M127.895 51.268c35.246 0 55.242 23.38 58.145 51.62h.89c22.682 0 41.07 18.385 41.07 41.056C228 166.621 209.612 185 186.93 185H68.848c-22.676 0-41.064-18.379-41.064-41.056 0-22.671 18.388-41.056 41.07-41.056h.89c2.925-28.424 22.898-51.62 58.151-51.62zM25.403 96.94a9.775 9.775 0 011.082 6.945 9.76 9.76 0 01-3.857 5.871l-.79.507-7.225 4.181a9.716 9.716 0 01-7.164 1.041 9.732 9.732 0 01-5.9-4.203 9.774 9.774 0 01-1.373-7.124 9.757 9.757 0 013.914-6.103l.79-.507 7.23-4.181a9.715 9.715 0 017.384-.975 9.736 9.736 0 015.91 4.542v.006zm78.625-53.18c-21.141 6.8-36.203 22.799-42.383 44.155l-.523 1.895-.645 2.654-2.291.429a51.543 51.543 0 00-18.589 7.977 44.026 44.026 0 01-5.428-29.118 43.97 43.97 0 0114.243-25.956 43.792 43.792 0 0127.443-10.998 43.78 43.78 0 0128.173 8.956v.005zm-90.105-3.747l.734.307 7.565 3.534a9.745 9.745 0 015 5.315 9.776 9.776 0 01-.084 7.305 9.745 9.745 0 01-5.122 5.198 9.713 9.713 0 01-7.286.177l-.735-.313-7.564-3.534a9.747 9.747 0 01-4.952-5.319 9.775 9.775 0 01.097-7.273 9.745 9.745 0 015.092-5.185 9.713 9.713 0 017.255-.212zm106.29-32.12a9.77 9.77 0 012.826 12.91l-.434.675-4.783 6.851a9.732 9.732 0 01-6.091 4.008 9.716 9.716 0 01-7.16-1.352 9.772 9.772 0 01-3.129-13.175l.434-.669 4.783-6.856a9.734 9.734 0 016.284-4.015 9.715 9.715 0 017.276 1.618l-.006.005zM62.975 5.552l.361.87 2.853 7.86a9.776 9.776 0 01-.212 7.258 9.744 9.744 0 01-5.158 5.1 9.713 9.713 0 01-7.244.116 9.742 9.742 0 01-5.317-4.932l-.362-.87-2.853-7.86a9.776 9.776 0 01.227-7.247A9.744 9.744 0 0150.424.76a9.713 9.713 0 017.234-.118 9.742 9.742 0 015.317 4.917v-.006z"
        fill="url(#prefix__paint0_linear)" />
    <defs>
        <linearGradient id="prefix__paint0_linear" x1="38.934" y1="33.447" x2="144.884" y2="155.851"
            gradientUnits="userSpaceOnUse">
            <stop offset=".102" stop-color="#28C2D1" />
            <stop offset=".925" stop-color="#4931DE" />
        </linearGradient>
    </defs>
</svg>